<?xml version="1.0" standalone="no"?>
<!DOCTYPE svg PUBLIC "-//W3C//DTD SVG 20010904//EN"
 "http://www.w3.org/TR/2001/REC-SVG-20010904/DTD/svg10.dtd">
<svg version="1.0" xmlns="http://www.w3.org/2000/svg"
 width="1280.000000pt" height="720.000000pt" viewBox="0 0 1280.000000 720.000000"
 preserveAspectRatio="xMidYMid meet">

<g transform="translate(0.000000,720.000000) scale(0.100000,-0.100000)"
fill="#000000" stroke="none">
<path d="M0 3600 l0 -3600 6400 0 6400 0 0 3600 0 3600 -6400 0 -6400 0 0
-3600z m4025 3455 c0 -101 3 -128 15 -135 11 -7 17 -3 23 13 5 13 4 23 -2 25
-6 2 -7 37 -4 89 4 64 2 87 -8 93 -22 14 9 40 47 40 28 0 33 -4 36 -27 2 -16
1 -41 -3 -58 -3 -16 -2 -88 2 -160 6 -105 24 -528 35 -825 1 -30 5 -142 9
-248 4 -106 8 -257 10 -335 2 -78 6 -232 9 -342 4 -110 8 -288 11 -395 3 -107
8 -231 10 -275 12 -186 17 -342 20 -725 4 -405 6 -470 21 -609 6 -62 5 -73 -7
-66 -12 7 -12 6 -1 -7 19 -24 -6 -77 -56 -116 -49 -39 -79 -42 -88 -7 -3 14
-10 25 -14 25 -5 0 -11 8 -14 18 -3 9 -4 -12 -2 -47 5 -68 4 -70 -80 -155 -17
-17 -35 -39 -40 -48 -26 -48 -122 -131 -200 -173 -97 -53 -159 -112 -222 -210
-25 -38 -57 -83 -72 -100 -15 -16 -30 -46 -33 -65 -2 -19 -16 -78 -31 -130
-43 -149 -103 -379 -116 -445 -25 -129 -76 -265 -163 -435 -50 -96 -121 -237
-159 -312 -51 -100 -84 -152 -124 -195 -59 -61 -154 -176 -193 -231 -13 -19
-34 -45 -47 -59 -13 -14 -24 -32 -24 -38 0 -13 -68 -45 -96 -45 -8 0 -48 24
-87 54 -40 29 -97 69 -128 89 -30 19 -107 85 -170 147 -113 111 -205 193 -289
260 -25 19 -69 58 -100 87 -65 61 -94 86 -147 130 -22 18 -46 45 -53 60 -8 16
-26 44 -41 63 -19 26 -26 49 -28 88 -1 30 -6 65 -12 78 -5 14 -9 75 -9 135 l0
110 -43 19 c-23 10 -57 33 -75 51 -19 18 -43 38 -55 44 -12 6 -27 21 -33 33
-6 13 -20 29 -30 37 -11 8 -15 15 -10 15 4 0 2 10 -6 23 -9 12 -18 38 -21 57
-12 72 -21 96 -49 122 -15 14 -28 31 -28 37 0 12 52 41 75 41 8 0 21 12 28 28
23 53 54 64 94 32 14 -11 23 -20 19 -20 -4 0 0 -13 9 -30 19 -37 19 -50 -1
-50 -11 0 -14 -8 -12 -33 3 -27 8 -33 38 -41 36 -8 36 -9 58 -105 12 -53 24
-113 27 -134 6 -35 25 -44 25 -11 0 8 7 26 16 40 9 14 20 42 24 62 5 20 13 61
19 91 6 30 11 119 12 198 0 160 -8 140 86 220 27 23 58 58 68 78 11 19 23 35
28 35 9 0 72 46 97 70 34 35 68 87 80 125 7 22 21 56 32 75 32 55 59 101 85
149 26 46 31 89 17 156 -7 31 -16 43 -40 55 -30 15 -74 87 -74 123 0 22 -26
40 -49 32 -20 -6 -112 -106 -142 -154 -17 -27 -48 -55 -63 -58 -5 -1 -14 -12
-20 -25 -16 -31 -54 -34 -126 -9 -74 26 -99 26 -175 1 -85 -28 -102 -38 -169
-95 -32 -27 -77 -58 -99 -67 -37 -17 -41 -17 -59 -2 -10 10 -18 31 -18 51 0
18 -4 33 -10 33 -5 0 -10 -5 -10 -12 0 -6 -2 -9 -5 -6 -10 10 8 39 21 34 15
-6 17 3 14 99 -1 33 -6 62 -11 63 -13 5 -11 80 3 84 14 5 4 38 -12 38 -5 0
-10 -10 -10 -22 0 -29 -11 -16 -20 24 -5 23 -1 49 13 86 13 36 17 65 13 90 -4
20 -7 45 -8 55 -1 9 -9 17 -16 17 -12 0 -12 3 -2 14 9 12 8 15 -9 13 -17 -1
-21 -8 -21 -39 0 -37 -1 -38 -35 -38 -21 0 -35 5 -35 13 0 9 -3 8 -9 -2 -12
-18 -24 3 -16 28 3 12 0 21 -10 25 -9 3 -14 10 -11 15 3 5 -1 25 -9 44 -11 27
-12 36 -2 40 9 3 8 11 -3 33 -8 16 -16 32 -18 37 -2 4 6 7 17 7 17 0 21 7 22
33 1 17 3 39 4 47 1 8 3 28 4 43 1 19 5 26 14 22 6 -4 4 0 -5 8 -10 8 -18 26
-18 41 0 14 -4 26 -9 26 -16 0 -20 28 -9 64 8 24 17 36 30 36 16 0 18 9 18 72
0 88 21 81 28 -9 3 -32 11 -67 20 -78 l14 -20 -7 20 c-14 35 -18 95 -6 95 6 0
11 -17 11 -40 0 -30 4 -40 16 -40 13 0 15 -12 9 -87 -5 -58 -3 -98 5 -118 8
-20 8 -31 1 -33 -18 -6 -14 -82 4 -82 11 0 15 11 15 39 0 22 5 41 12 43 8 3
13 41 14 123 1 76 6 121 13 123 6 2 11 19 11 38 0 27 4 34 20 34 18 0 20 7 20
79 0 44 -4 81 -8 83 -13 5 -1 79 12 75 6 -2 12 -20 14 -40 4 -41 22 -51 22
-12 0 16 6 25 16 25 8 0 25 5 36 11 15 8 17 13 8 19 -10 6 -9 15 4 40 9 18 16
39 16 47 0 7 11 13 25 13 14 0 25 -4 25 -10 0 -5 7 -10 15 -10 8 0 15 7 15 15
0 8 -4 15 -9 15 -5 0 -11 48 -14 108 -3 59 -8 130 -12 157 -10 75 -9 96 5 105
10 6 12 35 7 124 l-7 116 45 0 45 0 0 80 c0 59 -3 80 -13 80 -8 0 -13 15 -14
40 -2 30 2 40 13 40 8 0 13 4 9 9 -9 16 27 29 64 24 21 -4 36 -1 41 7 6 10 18
10 53 1 25 -6 60 -11 76 -11 21 0 31 -5 31 -15 0 -8 7 -15 16 -15 13 0 15 14
13 87 -2 83 -1 87 25 108 14 11 26 26 26 33 0 20 36 72 45 64 4 -4 5 1 2 11
-4 12 -1 17 11 18 14 0 14 2 -3 9 -17 7 -17 9 -2 9 10 1 17 9 18 24 1 18 2 19
6 3 5 -17 7 -16 29 9 26 31 33 85 10 85 -24 0 -9 101 20 127 13 12 24 28 24
36 0 8 9 17 20 20 31 8 60 -3 60 -24 0 -15 7 -19 40 -19 33 0 40 -3 40 -20 0
-11 5 -20 10 -20 6 0 10 19 9 43 0 32 -2 37 -9 22 -7 -17 -9 -16 -9 10 -1 24
6 35 29 48 32 19 39 37 15 37 -11 0 -15 11 -15 40 0 22 5 40 11 40 18 0 39 27
39 51 0 20 4 21 40 16 22 -3 40 -1 40 4 0 5 -18 9 -40 9 -23 0 -40 5 -40 11 0
8 14 10 39 6 43 -5 54 -1 66 28 7 18 9 18 12 3 4 -15 8 -16 25 -7 21 11 21 12
-3 26 -23 13 -23 14 -1 8 17 -5 22 -2 22 12 0 18 -60 73 -80 73 -7 0 -10 6 -8
13 3 6 23 13 46 15 40 3 42 2 42 -24 0 -15 3 -25 6 -22 3 4 5 9 4 13 -1 3 6
18 15 32 14 21 15 27 4 34 -11 7 -9 10 9 15 16 5 22 14 22 35 0 20 -5 29 -16
29 -18 0 -44 23 -44 39 0 6 18 11 39 11 33 0 40 4 43 23 2 13 9 21 18 19 8 -2
12 -1 8 3 -4 4 0 24 8 45 9 21 15 44 13 51 -3 28 1 50 10 45 4 -3 17 1 27 9
11 8 14 14 7 15 -8 0 -13 13 -13 29 0 16 -6 32 -12 35 -10 5 -10 7 0 12 6 3
12 12 12 20 0 10 12 14 40 14 22 0 40 5 40 10 0 6 18 10 40 10 33 0 40 3 40
20 0 14 7 20 23 20 12 0 31 7 41 15 19 14 19 15 -7 15 l-27 0 20 20 c26 26 33
25 66 -5 15 -14 31 -25 36 -25 15 0 58 52 58 70 0 10 7 23 15 30 8 7 15 22 15
34 0 28 59 66 102 66 25 0 29 3 18 10 -8 5 -39 10 -67 10 -60 0 -74 16 -15 17
169 2 205 3 201 7 -2 2 -33 6 -68 9 -35 3 -66 8 -69 11 -3 3 267 6 599 6 l604
0 0 -125z m335 105 c0 -21 -15 -27 -25 -10 -13 21 -24 9 -15 -16 6 -14 10 -52
10 -85 0 -33 4 -58 8 -55 10 6 35 -514 26 -538 -5 -14 0 -235 21 -861 3 -88
11 -403 17 -700 12 -622 11 -596 27 -905 13 -248 17 -832 6 -850 -8 -13 -79
-50 -116 -60 l-28 -8 3 231 c1 128 -3 374 -10 547 -16 416 -19 792 -18 2139 0
735 4 1126 11 1128 5 2 7 17 5 33 -4 29 -3 30 37 30 34 0 41 -3 41 -20z m1019
-127 c1 -81 5 -151 10 -156 9 -9 0 -54 -16 -79 -4 -7 -8 -17 -8 -22 0 -5 -6
-11 -14 -14 -9 -3 -11 0 -6 8 10 17 -54 -28 -83 -59 -13 -13 -26 -21 -29 -18
-6 7 -24 218 -22 262 1 17 2 74 3 128 l1 97 82 0 82 0 0 -147z m1933 135 c-7
-9 -6 -45 1 -111 8 -78 8 -100 -3 -110 -10 -9 -13 -9 -17 1 -3 6 -11 12 -19
12 -18 0 -27 39 -28 118 -1 45 3 65 14 72 10 7 11 10 3 10 -7 0 -13 5 -13 10
0 6 16 10 36 10 28 0 34 -3 26 -12z m943 -15 c-2 -16 -7 -122 -11 -238 -9
-308 -20 -463 -50 -670 -3 -22 -5 -84 -4 -137 2 -123 -20 -208 -62 -233 -15
-9 -28 -25 -28 -36 0 -11 -7 -19 -16 -19 -11 0 -14 5 -10 16 4 9 1 23 -6 32
-7 8 -22 33 -33 56 -11 22 -26 41 -34 41 -21 0 -30 32 -30 118 -1 44 -5 77
-11 77 -5 0 -10 17 -10 39 0 22 -6 44 -15 51 -13 11 -15 8 -15 -18 0 -28 -2
-30 -52 -35 -29 -3 -57 -1 -62 4 -6 5 -1 9 12 9 24 0 30 15 10 23 -8 3 -5 6 6
6 17 1 18 7 11 79 -6 69 -10 80 -38 105 -17 15 -34 27 -38 27 -4 0 -10 -12
-12 -27 -3 -24 -4 -23 -6 7 -1 26 -4 31 -11 20 -13 -20 -33 31 -34 88 -1 28
-6 44 -16 47 -16 5 -21 55 -6 55 4 0 6 9 3 20 -3 11 -1 20 4 20 5 0 9 9 9 19
0 14 -8 21 -27 23 -22 2 -29 9 -31 32 -4 31 15 86 29 86 5 0 9 27 9 60 0 36 4
60 11 60 5 0 7 5 3 12 -6 9 -9 9 -12 0 -2 -7 -10 -12 -19 -12 -12 0 -14 11
-11 55 1 30 0 55 -4 55 -18 0 -6 19 14 22 25 3 37 28 14 28 -8 0 -17 4 -20 9
-3 5 0 9 7 8 35 -1 46 4 40 19 -3 8 -12 13 -19 10 -7 -3 -16 -1 -19 4 -4 6
106 10 294 10 l301 0 -5 -27z m215 17 c-20 -13 -40 -13 -40 0 0 6 12 10 28 10
21 0 24 -2 12 -10z m990 -16 c0 -61 -48 -84 -100 -47 -31 22 -156 27 -164 7
-8 -22 -46 -16 -84 13 -21 15 -52 28 -76 30 -23 3 -45 9 -50 14 -6 5 82 9 232
9 l242 0 0 -26z m-5190 6 c0 -5 -4 -10 -10 -10 -5 0 -10 5 -10 10 0 6 5 10 10
10 6 0 10 -4 10 -10z m4188 -67 c2 -113 14 -229 27 -273 34 -113 37 -129 30
-176 -6 -43 -6 -141 0 -254 0 -19 2 -57 3 -83 1 -29 6 -46 12 -42 6 3 10 -1
10 -9 0 -8 -4 -18 -10 -21 -5 -3 -10 -31 -10 -60 0 -53 1 -55 35 -69 19 -8 35
-22 35 -30 0 -9 7 -16 15 -16 8 0 15 -4 15 -10 0 -5 -6 -10 -12 -10 -9 0 -8
-3 2 -10 19 -12 10 -20 -30 -25 -18 -2 -35 -7 -39 -10 -12 -13 -6 -382 7 -398
9 -10 10 -39 6 -99 -4 -47 -4 -106 0 -132 l7 -46 50 0 c43 0 51 -3 60 -24 12
-26 4 -96 -11 -96 -4 0 -6 -18 -3 -40 4 -26 2 -40 -6 -40 -6 0 -11 -9 -11 -20
0 -11 -4 -20 -10 -20 -5 0 -10 -9 -10 -20 0 -13 7 -20 19 -20 31 0 40 -75 13
-102 -7 -7 -12 -17 -12 -23 0 -5 -9 -16 -20 -23 -15 -9 -20 -23 -20 -56 0 -28
7 -52 20 -69 11 -14 20 -30 20 -36 0 -6 9 -11 19 -11 14 0 20 -9 23 -37 3 -21
1 -39 -4 -41 -4 -2 -8 -12 -8 -22 0 -10 -7 -20 -15 -24 -21 -8 -22 -116 -1
-116 8 0 17 -15 20 -33 4 -19 15 -52 26 -75 22 -45 26 -72 10 -72 -5 0 -16
-10 -24 -23 -14 -20 -14 -28 -1 -70 14 -45 13 -47 -7 -47 -17 0 -18 -2 -8 -15
7 -8 24 -15 38 -15 35 0 72 -37 72 -72 0 -21 5 -28 19 -28 11 0 26 -3 35 -6
12 -5 16 0 16 20 0 15 7 29 15 32 8 4 15 12 15 20 0 8 10 14 24 14 13 0 31 3
40 6 12 4 16 0 16 -15 0 -12 5 -21 10 -21 6 0 10 -11 10 -25 0 -18 5 -25 19
-25 27 0 36 17 20 37 -12 14 -10 15 21 9 107 -21 145 -41 100 -53 -11 -3 -20
-12 -20 -21 0 -12 3 -13 12 -4 7 7 40 12 79 12 42 0 69 4 71 12 3 8 9 8 23 0
15 -8 19 -20 17 -54 -2 -32 0 -39 7 -28 9 13 11 13 11 -2 0 -11 -8 -18 -20
-18 -16 0 -20 -7 -20 -36 0 -35 -25 -73 -38 -59 -4 4 -1 10 6 12 6 3 12 18 12
34 0 29 -1 29 -22 15 -15 -11 -26 -12 -40 -5 -15 8 -18 6 -18 -11 0 -11 5 -20
12 -20 6 0 9 -2 6 -5 -9 -9 -98 27 -98 40 0 13 -36 13 -120 -2 -19 -4 -39 -7
-45 -7 -44 -6 -75 -20 -75 -35 0 -9 -18 -28 -40 -41 -22 -14 -40 -31 -40 -38
0 -7 -7 -15 -15 -18 -8 -4 -15 -12 -15 -20 0 -8 -4 -14 -10 -14 -17 0 -11 -18
15 -44 14 -14 25 -34 25 -46 0 -11 5 -20 10 -20 6 0 24 -10 40 -22 24 -18 27
-24 17 -36 -6 -8 -12 -22 -12 -30 0 -9 -18 -25 -40 -36 -57 -29 -65 -40 -65
-80 0 -32 3 -36 27 -36 l27 0 -31 -32 c-39 -42 -53 -69 -53 -104 0 -15 -9 -47
-21 -71 -18 -37 -19 -48 -10 -72 7 -15 13 -51 15 -79 1 -29 8 -58 14 -64 7 -7
12 -8 12 -4 0 5 7 3 15 -4 10 -9 15 -9 15 -1 0 10 -14 15 -33 12 -5 -1 -6 3
-2 9 3 5 15 10 25 10 10 0 22 5 25 10 10 16 23 12 30 -10 7 -22 31 -27 38 -7
3 6 6 -7 6 -30 1 -32 -3 -43 -14 -43 -11 0 -15 -11 -15 -40 0 -37 2 -40 28
-41 23 -2 24 -2 4 -6 -26 -5 -20 -23 9 -23 10 0 19 -4 19 -9 0 -5 -9 -7 -20
-4 -12 3 -20 0 -20 -6 0 -7 -4 -9 -10 -6 -5 3 -10 14 -10 24 0 9 -8 26 -18 37
-10 10 -21 27 -25 37 -3 9 -11 17 -17 17 -7 0 -9 8 -5 19 3 11 -1 23 -12 32
-15 11 -16 11 -5 -1 16 -19 15 -30 -3 -30 -17 0 -110 55 -140 83 -11 10 -51
39 -88 65 -37 25 -78 57 -90 71 l-22 27 1 1619 c0 1674 5 2152 23 2243 6 28
11 77 12 107 3 77 26 75 27 -2z m-4111 -35 c-2 -13 -4 -3 -4 22 0 25 2 35 4
23 2 -13 2 -33 0 -45z m-1637 -28 c0 -5 -4 -10 -10 -10 -5 0 -10 5 -10 10 0 6
5 10 10 10 6 0 10 -4 10 -10z m6310 -320 c0 -5 -2 -10 -4 -10 -3 0 -8 5 -11
10 -3 6 -1 10 4 10 6 0 11 -4 11 -10z m3400 1 c0 -6 14 -18 30 -28 32 -18 40
-43 15 -43 -11 0 -15 -12 -15 -44 0 -24 -2 -51 -5 -58 -7 -17 26 -58 46 -58 8
0 25 -19 38 -41 17 -31 25 -38 32 -28 6 11 11 11 21 1 6 -6 25 -12 41 -12 16
0 26 -4 22 -10 -3 -5 1 -10 10 -10 9 0 13 5 10 10 -9 15 31 12 43 -3 18 -22
12 -103 -9 -126 -24 -26 -24 -37 0 -44 13 -3 21 1 24 12 3 9 5 4 6 -10 1 -21
-5 -28 -24 -33 -14 -4 -34 -15 -45 -26 -11 -11 -33 -21 -50 -21 -16 -1 -36 -2
-42 -3 -7 -1 -21 -16 -30 -33 -26 -47 -49 -72 -63 -67 -22 9 -36 -49 -33 -137
3 -82 4 -84 28 -85 46 -2 50 -4 50 -25 0 -16 5 -20 20 -16 11 3 22 2 24 -1 2
-4 11 -54 21 -112 9 -58 24 -121 33 -140 12 -25 18 -73 22 -173 3 -85 9 -140
16 -145 15 -9 35 -131 34 -201 -2 -65 5 -158 22 -286 7 -50 11 -182 10 -295
-4 -330 -3 -358 2 -500 4 -83 2 -156 -5 -190 -18 -86 -13 -198 8 -222 16 -18
18 -40 16 -197 0 -97 -4 -225 -7 -286 -4 -60 -6 -150 -5 -200 1 -49 1 -155 -1
-235 -7 -473 -7 -485 -24 -545 -12 -40 -17 -93 -17 -160 2 -149 -31 -325 -59
-325 -4 0 -13 -14 -20 -30 -11 -25 -10 -33 2 -48 19 -21 24 -87 21 -265 -2
-93 -8 -153 -18 -184 -14 -42 -23 -121 -29 -268 -11 -256 -20 -350 -38 -427
-11 -48 -18 -93 -16 -100 3 -7 -3 -29 -14 -48 -10 -19 -18 -45 -18 -57 0 -24
-30 -96 -43 -101 -4 -2 -5 -8 -1 -13 3 -5 -112 -9 -284 -9 l-290 0 4 87 c19
455 20 588 9 710 -7 71 -5 91 15 152 23 69 23 70 5 126 -15 49 -16 60 -4 83
15 29 18 129 22 692 1 179 5 330 9 336 4 5 14 64 23 130 9 65 22 125 28 133 8
9 11 47 10 105 -2 81 0 92 19 113 20 22 22 35 25 190 2 133 0 173 -13 197 -15
31 -17 43 -28 166 -10 99 8 287 29 310 13 15 15 23 7 33 -6 7 -9 26 -8 42 2
16 -3 39 -10 51 -18 27 -25 95 -11 112 8 10 15 7 33 -15 25 -31 46 -24 25 9
-31 50 -21 336 13 361 11 9 18 43 26 132 6 66 13 127 16 136 2 9 -2 43 -9 75
-9 40 -11 68 -5 86 6 16 6 72 1 135 -7 101 -6 187 12 537 5 103 4 149 -6 178
-10 33 -10 45 0 71 7 18 17 50 21 72 4 22 12 54 18 70 17 49 25 234 11 251 -6
8 -14 31 -16 52 -5 49 -5 405 0 462 3 25 5 103 6 173 1 124 2 127 21 117 11
-6 20 -7 21 -3 0 4 5 -3 10 -17 8 -20 12 -22 19 -10 5 8 10 11 10 5 1 -5 8 2
16 18 19 35 30 34 50 -5 11 -22 15 -47 12 -82 -3 -28 -3 -45 -1 -38 3 6 18 12
34 12 27 0 29 2 29 40 0 22 5 40 10 40 6 0 10 18 10 40 0 22 5 40 10 40 6 0
10 -4 10 -9z m-10274 -285 c21 -22 17 -26 -26 -26 -33 0 -40 3 -40 20 0 24 43
28 66 6z m10615 -6 c4 -8 1 -24 -6 -36 -7 -11 -15 -31 -18 -45 -3 -20 -5 -18
-6 8 0 17 -5 34 -11 38 -12 8 9 55 24 52 6 -1 14 -9 17 -17z m-10638 -37 c-24
-2 -43 -8 -43 -14 0 -5 -5 -9 -11 -9 -8 0 -8 5 1 15 8 10 27 14 54 13 l41 -1
-42 -4z m5704 -115 c-2 -13 -4 -5 -4 17 -1 22 1 32 4 23 2 -10 2 -28 0 -40z
m3973 -19 c0 8 3 11 7 8 10 -10 4 -104 -11 -168 l-12 -54 -13 71 c-10 53 -11
76 -2 92 6 11 11 31 11 44 0 18 2 20 10 8 8 -12 10 -12 10 -1z m-4905 -74 c80
-12 83 -15 51 -40 l-28 -22 36 -36 c20 -20 36 -43 36 -52 0 -8 6 -15 14 -15 8
0 16 -7 20 -15 3 -8 17 -15 31 -15 15 0 24 -4 21 -8 -3 -5 7 -8 22 -7 35 2 52
-11 52 -41 0 -13 6 -35 12 -50 10 -22 10 -28 0 -32 -20 -6 -14 -29 13 -46 14
-9 25 -22 25 -30 0 -7 11 -29 24 -48 13 -20 29 -53 36 -74 7 -22 23 -61 36
-89 17 -36 26 -81 33 -163 5 -62 14 -119 21 -127 6 -7 10 -19 9 -27 -2 -7 5
-31 15 -53 27 -58 31 -123 12 -169 -17 -41 -21 -86 -8 -86 23 0 74 35 82 56
17 45 66 18 55 -29 -4 -14 -2 -28 4 -32 13 -7 -4 -45 -25 -58 -19 -11 -18 -27
1 -27 9 0 27 12 40 28 29 32 34 111 11 166 -12 30 -12 37 1 56 10 13 13 35 10
58 -2 20 1 51 8 67 8 17 16 50 19 75 5 36 14 51 40 72 33 26 33 26 63 8 l30
-18 0 -118 c0 -66 5 -140 12 -166 10 -44 9 -54 -19 -123 -16 -41 -41 -93 -55
-114 -31 -50 -44 -96 -24 -89 7 2 21 18 31 34 21 36 78 154 78 164 0 3 12 35
26 70 34 85 51 242 33 318 -15 64 -69 132 -105 132 -15 0 -24 6 -24 15 0 22
46 19 85 -5 34 -21 46 -39 51 -75 8 -54 17 -85 24 -85 29 0 36 -233 9 -279
-10 -17 -79 -256 -79 -272 0 -15 -81 -180 -105 -212 -26 -38 -65 -57 -112 -57
-52 1 -113 59 -113 108 0 11 -6 25 -14 31 -8 7 -18 26 -21 42 -4 16 -13 29
-22 29 -12 0 -14 -12 -10 -64 3 -35 9 -72 14 -82 5 -10 8 -43 7 -73 0 -43 -5
-57 -23 -70 -24 -18 -38 -75 -21 -86 9 -6 15 8 11 29 -1 4 1 18 5 30 7 21 7
21 15 1 4 -11 8 -48 8 -82 1 -35 5 -63 10 -63 5 0 9 -124 10 -276 0 -151 3
-280 7 -285 3 -5 -8 -14 -25 -20 -17 -6 -31 -16 -31 -22 0 -8 4 -7 12 1 9 9
16 4 30 -19 14 -23 24 -30 38 -26 11 3 18 2 15 -2 -5 -9 30 -40 67 -60 47 -24
56 -79 24 -151 -15 -34 -102 -167 -126 -193 -11 -11 -27 -43 -36 -71 -13 -40
-35 -69 -99 -132 -45 -45 -97 -90 -116 -100 -50 -27 -142 -64 -158 -64 -7 0
-31 -14 -52 -31 -27 -21 -45 -29 -57 -23 -15 6 -15 8 3 12 31 6 45 24 15 19
-14 -2 -20 -2 -14 0 12 4 24 35 24 61 0 7 -10 16 -22 21 -21 7 -19 9 15 20 20
7 37 17 37 22 0 5 -1 9 -2 9 -16 1 -78 29 -65 30 21 0 22 23 2 40 -13 11 -13
14 -1 24 13 9 13 16 1 49 -10 29 -11 47 -3 68 6 17 8 33 4 36 -3 4 -6 -2 -7
-13 -1 -14 -3 -13 -8 6 -5 17 -2 31 10 43 9 10 15 27 12 37 -3 10 0 21 6 24 6
4 11 16 11 27 0 11 11 37 25 59 14 22 25 48 25 59 0 11 5 21 11 23 6 2 14 27
17 56 3 35 9 52 18 52 8 0 14 5 14 10 0 18 -16 10 -69 -35 -29 -25 -59 -45
-66 -45 -8 0 -35 -7 -60 -15 -35 -12 -54 -14 -82 -6 -25 7 -41 7 -49 0 -9 -8
-17 -3 -31 18 -9 15 -21 31 -26 34 -4 3 -1 12 8 19 24 20 18 38 -19 55 l-34
16 29 30 c15 16 32 29 37 29 14 0 52 36 52 49 0 6 7 11 16 11 11 0 15 6 11 20
-3 12 0 20 7 20 6 0 20 14 29 30 l18 30 -25 0 c-14 0 -28 -4 -31 -10 -9 -15
-45 -12 -45 3 0 8 -10 22 -22 33 -19 17 -21 17 -15 2 5 -13 1 -18 -12 -18 -11
0 -21 -6 -24 -12 -9 -25 -52 30 -52 67 0 29 4 36 29 45 16 5 43 10 60 10 26 0
35 -7 54 -40 13 -22 27 -38 32 -35 11 7 -16 55 -37 68 -21 13 -15 37 11 47 13
5 26 14 28 20 2 6 26 11 54 12 45 0 53 3 67 28 17 28 17 28 -15 34 -20 4 -39
1 -54 -9 -25 -16 -28 -14 -38 28 -5 22 -3 27 13 27 10 0 34 2 52 6 l34 5 -37
-21 c-21 -11 -38 -22 -38 -24 0 -9 86 8 100 20 9 7 28 12 43 10 34 -3 48 -16
19 -16 -12 0 -22 -4 -22 -10 0 -5 20 -10 45 -10 25 0 45 5 45 10 0 6 7 10 15
10 31 0 16 46 -27 84 -39 34 -43 35 -46 16 -5 -30 -30 -25 -134 31 -30 16
-158 30 -273 30 l-110 1 50 14 c28 7 101 14 163 15 61 0 112 3 112 5 0 17 -37
54 -62 63 -44 16 -63 15 -49 -2 21 -26 -1 -26 -41 -1 -22 14 -43 23 -46 19 -4
-3 0 -10 8 -15 9 -6 10 -10 3 -10 -6 0 -21 19 -33 43 -15 31 -32 47 -61 59
-40 17 -40 18 -25 40 9 13 16 43 16 70 0 57 -24 79 -75 71 -30 -5 -33 -2 -48
36 -21 51 -21 81 -3 125 19 46 20 155 1 176 -25 27 -39 130 -26 190 16 72 14
125 -5 141 -10 8 -15 27 -14 58 2 65 2 68 -16 86 -12 11 -26 14 -51 9 -31 -6
-38 -3 -66 29 -24 27 -42 36 -72 40 -38 4 -163 33 -195 45 -13 4 -12 6 2 9 9
2 19 10 22 18 3 10 0 12 -12 8 -15 -6 -15 -4 -4 10 8 9 29 21 48 27 26 9 33
16 29 29 -6 21 57 80 88 82 12 1 45 3 74 5 28 1 66 6 85 9 73 15 178 17 194 4
8 -7 14 -8 13 -3 0 5 2 19 6 30 9 28 87 53 108 35 8 -6 17 -8 20 -5 3 4 21 10
39 14 30 7 29 8 -19 9 -28 1 -58 4 -67 7 -24 9 -9 24 25 24 17 0 32 6 35 15 4
8 15 15 27 15 48 0 5 10 -61 15 -59 3 -72 2 -72 -10 0 -14 -46 -21 -100 -16
-20 2 -52 -35 -65 -74 -10 -27 -15 -31 -70 -38 -70 -9 -116 -10 -123 -3 -9 10
21 37 35 32 16 -6 18 10 2 20 -8 4 -9 26 -5 65 4 43 2 59 -7 59 -6 1 -25 7
-42 15 -30 14 -30 14 -2 9 30 -7 37 12 15 35 -7 6 -13 25 -13 42 0 30 2 31 65
34 33 1 170 43 196 60 11 7 41 16 66 20 35 5 48 3 62 -10 23 -24 210 -38 226
-17 3 4 21 8 40 10 19 1 42 9 50 17 8 8 21 13 30 11 8 -2 33 -7 55 -11z m945
-21 c0 -8 -5 -12 -10 -9 -6 4 -8 11 -5 16 9 14 15 11 15 -7z m-5921 -81 c0 -5
-4 -17 -9 -28 -8 -18 -9 -17 -9 8 -1 15 4 27 9 27 6 0 10 -3 9 -7z m5921 3 c0
-11 -19 -15 -25 -6 -3 5 1 10 9 10 9 0 16 -2 16 -4z m117 -58 c-2 -13 -4 -3
-4 22 0 25 2 35 4 23 2 -13 2 -33 0 -45z m-1922 2 c-3 -5 -10 -10 -16 -10 -5
0 -9 5 -9 10 0 6 7 10 16 10 8 0 12 -4 9 -10z m-4128 -77 c-2 -16 -4 -3 -4 27
0 30 2 43 4 28 2 -16 2 -40 0 -55z m-270 10 c-3 -10 -5 -2 -5 17 0 19 2 27 5
18 2 -10 2 -26 0 -35z m10175 -78 c-5 -42 -21 -47 -23 -7 -1 15 -3 38 -4 51
-1 13 3 37 9 53 l11 30 5 -46 c3 -25 4 -62 2 -81z m-9997 106 c7 -12 -12 -24
-25 -16 -11 7 -4 25 10 25 5 0 11 -4 15 -9z m4738 -78 c-7 -2 -19 -2 -25 0 -7
3 -2 5 12 5 14 0 19 -2 13 -5z m-113 -32 c0 -11 -49 -21 -55 -11 -2 4 -2 10 2
14 10 9 53 7 53 -3z m-4930 -145 c0 -19 2 -40 3 -48 2 -7 2 -10 0 -5 -3 4 -13
7 -24 7 -16 0 -19 7 -19 40 0 33 3 40 20 40 16 0 20 -7 20 -34z m6577 -28 c-2
-13 -4 -3 -4 22 0 25 2 35 4 23 2 -13 2 -33 0 -45z m-6367 3 c0 -12 -9 -20
-23 -23 -20 -4 -23 -1 -19 19 5 29 42 32 42 4z m-285 -297 c7 -40 1 -57 -10
-25 -3 12 -13 21 -21 21 -15 0 -44 23 -44 34 0 3 15 6 34 6 31 0 34 -3 41 -36z
m4465 -144 c0 -5 -4 -10 -10 -10 -5 0 -10 5 -10 10 0 6 5 10 10 10 6 0 10 -4
10 -10z m114 -45 c23 -17 13 -35 -21 -35 -19 0 -24 4 -19 16 3 9 6 20 6 25 0
13 12 11 34 -6z m2849 -342 c-13 -2 -33 -2 -45 0 -13 2 -3 4 22 4 25 0 35 -2
23 -4z m2932 -177 c-6 -44 -11 -56 -25 -56 -11 0 -20 10 -24 24 -6 26 1 56 14
56 4 0 11 12 14 26 13 49 28 11 21 -50z m-2685 -41 c7 -8 19 -15 26 -15 17 0
18 -9 2 -47 -11 -26 -18 -29 -53 -29 -35 1 -40 4 -44 26 -1 14 -8 28 -14 32
-13 8 31 47 54 48 9 0 22 -7 29 -15z m-4873 -167 c-3 -7 -5 -2 -5 12 0 14 2
19 5 13 2 -7 2 -19 0 -25z m5398 -28 c3 -5 15 -10 26 -10 15 0 19 -7 19 -35 0
-34 -1 -35 -39 -35 -42 0 -69 20 -29 21 20 0 19 2 -9 16 -36 18 -43 39 -15 46
30 8 41 7 47 -3z m-3217 -97 c2 -8 -5 -13 -17 -13 -21 0 -35 13 -24 24 10 10
36 3 41 -11z m2640 -18 c15 -14 22 -25 15 -25 -6 0 -15 -9 -18 -20 -4 -11 -10
-18 -15 -15 -4 3 -6 -4 -3 -15 5 -17 0 -20 -33 -20 -36 0 -41 3 -57 40 -21 50
-21 57 1 69 32 19 81 13 110 -14z m-891 -17 c-3 -7 -5 -2 -5 12 0 14 2 19 5
13 2 -7 2 -19 0 -25z m1089 7 c4 -9 -6 -33 -21 -55 l-27 -39 -24 28 c-13 16
-24 34 -24 39 0 6 -8 13 -17 15 -10 2 -3 2 15 0 21 -3 38 2 48 12 20 19 43 19
50 0z m-3981 -30 c42 -26 103 -33 147 -16 20 7 24 6 24 -9 0 -10 -4 -16 -9
-13 -4 2 -5 -6 -2 -19 3 -12 8 -144 10 -293 3 -148 6 -290 8 -314 2 -41 -1
-46 -31 -64 -17 -10 -59 -21 -91 -24 -57 -5 -59 -5 -59 18 3 248 -6 482 -19
534 -16 60 -33 225 -23 225 3 0 23 -12 45 -25z m3525 -55 c0 -5 14 -10 30 -10
28 0 30 -2 30 -40 0 -25 -5 -40 -13 -40 -7 0 -18 -9 -25 -20 -13 -21 -34 -18
-64 8 -27 23 -24 84 5 98 29 15 37 16 37 4z m703 -10 c13 0 17 -9 17 -40 0
-22 5 -40 10 -40 6 0 5 -8 -2 -20 -9 -14 -24 -20 -50 -20 l-38 0 0 66 c0 64 1
66 23 60 12 -3 30 -6 40 -6z m174 4 c-3 -3 -12 -4 -19 -1 -8 3 -5 6 6 6 11 1
17 -2 13 -5z m-1507 -44 c0 -22 -4 -40 -10 -40 -5 0 -10 18 -10 40 0 22 5 40
10 40 6 0 10 -18 10 -40z m-1391 13 c76 -24 64 -37 -26 -29 -104 9 -117 14
-102 32 15 19 65 18 128 -3z m-5958 -46 c-1 -12 -15 -9 -19 4 -3 6 1 10 8 8 6
-3 11 -8 11 -12z m8384 3 c3 -5 -3 -10 -15 -10 -12 0 -18 5 -15 10 3 6 10 10
15 10 5 0 12 -4 15 -10z m475 0 c0 -5 -9 -10 -20 -10 -11 0 -20 5 -20 10 0 6
9 10 20 10 11 0 20 -4 20 -10z m-400 -45 c0 -7 -17 -16 -37 -20 -21 -4 -41
-12 -45 -18 -4 -6 -11 -8 -15 -3 -4 5 -2 11 5 13 6 3 12 15 12 27 0 19 4 21
40 18 24 -3 40 -9 40 -17z m350 -21 c0 -17 6 -24 19 -24 15 0 20 -9 23 -45 2
-29 -1 -46 -9 -50 -7 -2 -12 -15 -10 -27 1 -15 -3 -23 -13 -23 -10 0 -14 8
-13 23 2 16 -5 26 -22 34 -31 14 -75 80 -57 86 7 2 12 12 12 23 0 10 7 19 15
19 9 0 18 7 21 15 9 23 34 -1 34 -31z m-2985 -65 c4 -6 13 -8 21 -5 7 3 16 1
20 -5 3 -6 -3 -13 -15 -16 -12 -3 -21 -9 -21 -14 0 -5 -26 -21 -57 -35 -48
-21 -72 -25 -143 -25 -47 1 -96 3 -110 5 -14 2 -29 5 -33 5 -5 1 -7 11 -5 23
4 29 39 38 161 43 65 3 106 10 120 20 25 18 53 19 62 4z m-6215 -54 c0 -19 -9
-19 -34 0 -19 14 -19 15 7 15 17 0 27 -5 27 -15z m88 -54 c12 -10 22 -23 22
-30 0 -6 4 -11 8 -11 17 0 30 -48 29 -102 -2 -51 0 -57 26 -71 15 -9 30 -24
34 -34 4 -10 10 -20 13 -23 26 -19 69 -124 80 -195 7 -44 18 -92 26 -107 14
-27 52 -135 60 -173 2 -11 10 -45 17 -75 31 -135 -12 -141 -69 -10 -33 75 -44
106 -50 135 -3 19 -12 39 -20 46 -7 6 -16 26 -20 45 -3 19 -12 34 -20 34 -8 0
-14 7 -14 15 0 8 -11 25 -25 39 -14 14 -25 33 -25 42 0 10 -7 25 -16 35 -19
21 -31 78 -39 182 -4 45 -12 76 -21 83 -8 6 -14 19 -14 29 0 9 -8 29 -19 43
-18 26 -34 106 -23 117 11 11 40 4 60 -14z m399 -73 c-2 -13 -4 -3 -4 22 0 25
2 35 4 23 2 -13 2 -33 0 -45z m5373 53 c0 -12 -20 -25 -27 -18 -7 7 6 27 18
27 5 0 9 -4 9 -9z m247 -23 c12 -15 27 -88 18 -88 -12 0 -65 54 -65 67 0 7 -5
13 -11 13 -5 0 -7 5 -4 10 9 14 51 12 62 -2z m-159 -45 c-5 -25 -28 -28 -28
-4 0 12 6 21 16 21 9 0 14 -7 12 -17z m87 -12 c-3 -12 -11 -19 -16 -16 -5 4
-5 14 2 26 13 26 23 18 14 -10z m215 -21 c0 -5 -7 -10 -15 -10 -8 0 -15 5 -15
10 0 6 7 10 15 10 8 0 15 -4 15 -10z m5080 -51 c0 -18 -4 -28 -10 -24 -5 3
-10 20 -10 36 0 18 4 28 10 24 6 -3 10 -20 10 -36z m-5120 21 c0 -5 -5 -10
-11 -10 -5 0 -7 5 -4 10 3 6 8 10 11 10 2 0 4 -4 4 -10z m5104 -140 c-3 -14
-8 -89 -11 -167 -3 -84 -10 -143 -16 -143 -6 0 -7 46 -1 133 4 72 9 150 10
172 0 22 2 51 3 65 3 24 3 24 12 -5 5 -16 6 -41 3 -55z m-2624 51 c0 -10 9
-21 20 -24 33 -9 37 -37 7 -63 -15 -13 -27 -30 -27 -38 0 -9 -11 -18 -25 -22
-14 -3 -25 -10 -25 -15 0 -12 -42 -11 -60 2 -12 8 -10 9 8 4 13 -4 22 -2 22 4
0 6 9 11 19 11 11 0 23 5 26 10 4 6 -5 10 -19 10 -14 0 -26 -4 -26 -10 0 -5
-18 -10 -40 -10 -44 0 -49 6 -22 26 14 11 14 15 4 22 -11 8 -11 17 1 53 16 47
32 56 100 58 30 1 37 -3 37 -18z m364 -3 c7 -7 15 -21 19 -32 6 -15 14 -17 45
-12 122 20 132 20 132 -2 0 -12 9 -23 20 -27 11 -3 20 -13 20 -20 0 -16 -34
-38 -44 -28 -3 3 -6 4 -6 1 0 -2 14 -20 30 -38 36 -40 37 -49 7 -84 -30 -35
-86 -34 -102 1 -13 29 -43 36 -50 12 -7 -20 -35 -27 -35 -9 0 6 -7 10 -15 10
-9 0 -26 7 -40 16 -21 14 -23 20 -18 70 5 46 3 54 -11 54 -23 0 -20 17 4 25
21 7 27 30 10 40 -6 4 -5 11 3 20 15 18 16 18 31 3z m-1324 -68 c0 -15 -7 -20
-27 -20 -25 0 -26 0 -8 20 10 11 22 20 27 20 4 0 8 -9 8 -20z m1240 0 c0 -11
-7 -20 -15 -20 -13 0 -14 4 -5 20 6 11 13 20 15 20 3 0 5 -9 5 -20z m446 -14
c3 -14 13 -27 22 -31 14 -5 11 -11 -17 -36 -34 -30 -47 -34 -75 -23 -24 9 -22
101 2 107 43 12 62 7 68 -17z m-536 -25 c0 -10 -7 -24 -15 -31 -8 -7 -15 -24
-15 -39 -1 -25 -1 -25 -15 -7 -8 11 -15 37 -15 58 0 36 2 38 30 38 23 0 30 -5
30 -19z m514 -126 c8 -8 19 -15 25 -15 6 0 8 -7 5 -15 -4 -8 -1 -15 5 -15 19
0 12 -32 -9 -37 -11 -3 -17 -9 -14 -14 6 -11 -41 -23 -61 -15 -21 8 -20 89 1
110 19 20 29 20 48 1z m-1734 -121 c0 -8 -4 -12 -10 -9 -5 3 -10 10 -10 16 0
5 5 9 10 9 6 0 10 -7 10 -16z m990 -49 c0 -28 -26 -51 -67 -60 -49 -10 -73 1
-73 35 0 55 19 79 64 82 46 4 76 -18 76 -57z m-8220 19 c0 -9 -8 -23 -17 -32
-16 -16 -16 -16 -10 1 4 10 7 28 7 38 0 11 5 17 10 14 6 -3 10 -13 10 -21z m3
-119 c4 -8 2 -17 -3 -20 -6 -4 -10 3 -10 14 0 25 6 27 13 6z m8602 -1 c-9 -9
-19 -13 -23 -10 -3 4 0 11 8 16 24 15 33 11 15 -6z m-615 -63 c0 -21 -36 -52
-53 -46 -9 4 -17 11 -17 15 0 5 -7 16 -16 24 -14 15 -13 19 6 46 l22 31 29
-30 c16 -17 29 -35 29 -40z m691 17 c6 -11 8 -37 4 -57 -7 -41 -33 -61 -82
-61 -25 0 -25 -1 -9 -13 18 -13 17 -16 -13 -73 -17 -32 -31 -66 -31 -75 0 -36
-25 -52 -92 -56 l-66 -5 -7 54 c-3 29 -7 79 -9 110 -1 32 -5 61 -9 64 -4 4 -7
0 -7 -9 0 -9 -4 -17 -10 -17 -5 0 -10 9 -10 20 0 24 -13 26 -30 4 -8 -8 -22
-20 -32 -25 -17 -9 -18 -6 -16 26 2 29 6 36 23 34 40 -3 55 1 55 15 0 8 15 20
34 26 43 14 86 -5 113 -50 9 -16 23 -30 31 -30 18 0 45 28 38 39 -3 5 -3 30 0
55 l7 47 54 -2 c42 -2 57 -7 64 -21z m-7646 -68 c3 -5 -1 -10 -9 -10 -8 0 -18
5 -21 10 -3 6 1 10 9 10 8 0 18 -4 21 -10z m7485 -20 c0 -5 -4 -10 -10 -10 -5
0 -10 5 -10 10 0 6 5 10 10 10 6 0 10 -4 10 -10z m553 -23 c-5 -8 -8 -7 -11 1
-2 7 -11 12 -20 12 -14 0 -15 2 -2 10 17 11 43 -7 33 -23z m-373 -26 c0 -9
-52 -22 -60 -15 -7 7 23 24 43 24 9 0 17 -4 17 -9z m-404 -84 c20 -43 22 -94
2 -66 -8 11 -9 10 -4 -3 11 -36 -4 -48 -60 -48 l-54 0 0 41 c0 32 7 50 33 79
17 21 39 39 48 39 9 1 23 -17 35 -42z m-2688 -179 c19 -19 14 -28 -18 -28 -23
0 -30 4 -30 20 0 23 29 27 48 8z m2419 -33 c-6 -7 -15 -11 -19 -8 -14 8 -8 19
12 20 16 1 17 -1 7 -12z m68 -27 c-4 -24 -9 -46 -12 -50 -5 -10 -43 14 -43 26
0 6 5 5 12 -2 15 -15 32 -16 23 -2 -6 9 15 70 23 70 2 0 1 -19 -3 -42z m215 2
c0 -29 4 -40 15 -40 25 0 17 -25 -15 -43 -26 -16 -30 -24 -30 -63 0 -28 -6
-52 -15 -61 -14 -14 -15 -13 -10 10 5 20 2 28 -17 38 -27 16 -58 20 -58 8 0
-5 -7 -9 -15 -9 -8 0 -15 5 -15 11 0 6 -14 27 -31 46 -16 19 -28 37 -26 40 9
8 47 -22 47 -37 0 -17 19 -40 31 -40 4 0 4 14 -1 31 -6 20 -6 38 0 48 7 12 9
5 10 -26 0 -42 11 -55 26 -31 4 6 3 13 -3 15 -6 2 -9 12 -6 22 3 12 -4 25 -19
36 -15 11 -19 19 -10 22 6 3 12 10 12 15 0 26 36 47 83 47 l47 1 0 -40z m426
-37 c-10 -10 -19 5 -10 18 6 11 8 11 12 0 2 -7 1 -15 -2 -18z m-603 -10 c-7
-2 -19 -2 -25 0 -7 3 -2 5 12 5 14 0 19 -2 13 -5z m391 -17 c3 -13 9 -31 12
-40 4 -12 0 -16 -15 -16 -12 0 -21 -6 -21 -15 0 -11 -11 -15 -40 -15 l-40 0 0
55 0 55 49 0 c43 0 50 -3 55 -24z m-276 -172 c30 9 97 10 110 2 19 -11 15 -73
-5 -86 -17 -11 -17 -11 -1 -6 16 5 18 -1 14 -50 -2 -33 -10 -60 -19 -67 -8 -7
-17 -19 -20 -27 -4 -10 -6 -7 -6 8 -1 12 -5 22 -10 22 -5 0 -14 15 -21 33 -7
17 -21 41 -30 52 -10 11 -23 38 -30 60 -7 22 -16 47 -20 55 -4 8 -2 20 4 26 8
8 12 6 14 -8 2 -12 9 -17 20 -14z m423 -105 c10 -11 15 -27 12 -35 -7 -19 -23
-18 -23 1 0 8 -7 15 -15 15 -15 0 -21 21 -8 33 10 11 14 9 34 -14z m-271 -9
c0 -5 -5 -10 -11 -10 -5 0 -7 5 -4 10 3 6 8 10 11 10 2 0 4 -4 4 -10z m-7880
-160 c0 -5 9 -10 20 -10 11 0 20 -7 20 -15 0 -8 5 -23 11 -33 8 -13 6 -28 -10
-64 -21 -50 -35 -59 -45 -32 -3 8 -10 13 -15 10 -5 -4 -19 7 -31 24 -12 17
-16 30 -10 30 22 0 40 29 40 64 0 20 5 36 10 36 6 0 10 -4 10 -10z m-518 -70
c20 -6 46 -23 58 -38 11 -15 31 -39 44 -54 37 -41 26 -63 -35 -65 -27 -1 -49
2 -49 7 0 6 -16 7 -35 4 -41 -6 -96 9 -118 34 -8 9 -18 33 -22 52 -6 33 -4 37
27 52 39 20 79 22 130 8z m505 -137 c-3 -10 -5 -4 -5 12 0 17 2 24 5 18 2 -7
2 -21 0 -30z m5192 -642 c69 -41 73 -41 142 -10 35 16 71 28 79 29 8 0 43 -22
77 -49 l63 -49 62 19 c35 10 72 19 83 19 11 0 45 -25 76 -56 l57 -57 79 12 78
12 30 -34 c17 -19 42 -50 58 -70 27 -36 28 -36 109 -39 l82 -3 41 -70 42 -70
79 -10 79 -10 25 -72 c14 -40 30 -76 35 -81 6 -5 33 -15 60 -21 73 -18 92 -33
100 -83 15 -100 13 -97 79 -127 35 -16 66 -33 70 -39 3 -6 9 -45 13 -87 6 -81
3 -75 82 -134 24 -18 24 -19 14 -97 -10 -72 -9 -81 8 -106 l20 -28 -46 0 c-35
0 -45 4 -45 16 0 23 -117 285 -152 341 -51 80 -190 243 -280 328 -236 224
-563 394 -901 471 -555 126 -1115 27 -1546 -274 -125 -87 -321 -273 -434 -412
-73 -90 -209 -300 -252 -388 l-39 -82 -48 0 -48 0 0 69 0 68 70 47 70 46 1 58
c2 94 7 103 86 145 l72 37 11 58 c6 31 13 67 16 79 5 25 42 47 95 57 54 10 70
26 99 107 l26 74 65 14 c35 7 70 15 76 17 7 2 30 37 50 79 l37 75 83 0 83 0
34 53 c50 78 53 80 144 72 l78 -7 43 51 c24 28 54 54 67 57 14 4 55 -2 93 -12
l69 -17 55 46 c30 26 64 47 75 47 12 0 51 -12 86 -26 l65 -26 67 41 c74 45 79
45 153 2z m-5139 -83 c0 -18 -2 -20 -9 -8 -6 8 -7 18 -5 22 9 14 14 9 14 -14z
m-30 5 c0 -5 -7 -17 -15 -27 -14 -19 -15 -19 -15 7 0 17 5 27 15 27 8 0 15 -3
15 -7z m5350 -268 c438 -70 782 -242 1060 -531 122 -128 215 -255 299 -412
l12 -22 -312 0 -312 0 27 33 c85 105 117 148 137 186 24 46 37 135 22 144 -5
3 -28 -20 -50 -51 -22 -31 -91 -114 -152 -184 l-111 -128 -621 0 c-588 0 -621
1 -614 17 24 58 34 92 35 122 1 93 -61 181 -163 231 -115 56 -336 59 -467 6
-154 -63 -244 -174 -257 -317 l-6 -59 -174 0 -174 0 28 48 c76 131 210 315
321 440 204 230 603 429 952 476 145 19 402 20 520 1z m-5180 -55 c0 -11 -4
-20 -10 -20 -5 0 -10 9 -10 20 0 11 5 20 10 20 6 0 10 -9 10 -20z m-105 -30
c3 -5 1 -10 -4 -10 -6 0 -11 5 -11 10 0 6 2 10 4 10 3 0 8 -4 11 -10z m47 -37
c9 -23 12 -25 15 -10 3 10 10 16 16 14 18 -6 21 -38 5 -48 -9 -6 -7 -9 10 -9
12 0 22 -4 22 -9 0 -5 12 -12 28 -16 33 -8 82 -59 82 -86 0 -16 7 -19 43 -19
l42 0 -32 20 c-18 11 -33 22 -33 24 0 11 30 60 42 67 16 10 38 -8 38 -32 0
-10 9 -35 20 -54 11 -20 18 -40 15 -46 -4 -5 6 -9 20 -9 17 0 35 -10 47 -25
22 -28 38 -25 38 7 0 16 5 13 26 -18 15 -21 30 -40 35 -42 5 -2 9 -10 9 -18 0
-8 13 -17 31 -21 20 -4 28 -10 25 -19 -3 -9 2 -14 13 -14 11 0 21 5 23 12 3 7
16 -12 30 -41 18 -39 27 -49 31 -36 4 9 11 13 17 10 5 -3 10 1 10 10 0 26 18
8 25 -26 5 -20 12 -29 23 -27 10 1 42 -16 73 -40 31 -23 63 -42 71 -42 18 0
68 -44 68 -60 0 -7 9 -23 20 -37 17 -22 20 -23 20 -7 0 16 2 16 16 -4 8 -12
20 -22 26 -22 15 0 58 -48 58 -66 0 -8 7 -17 15 -20 8 -4 15 -12 15 -20 0 -8
5 -14 11 -14 6 0 9 -9 6 -19 -3 -13 1 -21 12 -24 9 -3 -136 -5 -321 -6 l-337
-1 -7 35 c-7 38 -14 41 -43 23 -22 -13 -56 -3 -45 13 5 9 -4 10 -32 6 -21 -3
-31 -3 -21 -1 23 7 22 34 -1 34 -26 0 -64 44 -64 74 0 29 -15 44 -54 55 -15 4
-30 14 -34 22 -4 7 -12 24 -19 37 -8 16 -9 28 -1 43 6 11 10 39 8 62 -3 37 -6
42 -37 51 -23 7 -37 19 -46 40 -7 17 -25 44 -39 59 -14 15 -26 31 -26 34 0 4
-10 17 -22 30 -21 22 -21 26 -9 85 7 35 9 64 4 65 -29 11 -31 19 -20 61 13 49
23 53 39 15z m4420 -483 c119 -56 149 -146 88 -266 -51 -100 -42 -95 -173 -92
l-116 3 51 65 c76 99 108 158 108 207 0 38 -19 74 -38 73 -4 -1 -22 -25 -40
-53 -18 -29 -48 -69 -66 -87 -17 -19 -64 -74 -104 -122 l-73 -88 -63 0 c-74 0
-95 16 -103 79 -18 129 96 261 257 298 82 19 214 11 272 -17z m-3272 -274 c0
-3 -4 -8 -10 -11 -5 -3 -10 -1 -10 4 0 6 5 11 10 11 6 0 10 -2 10 -4z m100
-81 c0 -3 -11 -4 -24 -3 -15 1 -22 7 -19 15 4 9 10 10 24 2 10 -5 19 -12 19
-14z m-67 -2 c-7 -2 -19 -2 -25 0 -7 3 -2 5 12 5 14 0 19 -2 13 -5z"/>
<path d="M2558 6825 c-4 -21 -1 -25 19 -25 20 0 22 3 13 19 -16 31 -27 33 -32
6z"/>
<path d="M2480 6790 c0 -45 5 -47 40 -20 l25 19 -24 20 c-34 30 -41 26 -41
-19z"/>
<path d="M2382 6800 c0 -14 2 -19 5 -12 2 6 2 18 0 25 -3 6 -5 1 -5 -13z"/>
<path d="M3997 6428 c-3 -12 -2 -29 3 -38 5 -10 7 -19 5 -22 -3 -3 2 -5 11 -5
19 0 35 37 27 66 -7 27 -39 27 -46 -1z"/>
<path d="M2000 6000 c0 -22 4 -28 15 -24 8 4 15 14 15 24 0 10 -7 20 -15 24
-11 4 -15 -2 -15 -24z"/>
<path d="M1860 5790 c0 -18 5 -30 13 -30 9 0 12 10 9 30 -2 17 -8 30 -13 30
-5 0 -9 -13 -9 -30z"/>
<path d="M1906 5775 c-3 -8 -1 -15 4 -15 6 0 10 7 10 15 0 8 -2 15 -4 15 -2 0
-6 -7 -10 -15z"/>
<path d="M1277 5273 c6 -15 51 -17 72 -4 9 6 -1 10 -31 12 -33 3 -44 1 -41 -8z"/>
<path d="M1585 5270 c3 -5 8 -10 11 -10 2 0 4 5 4 10 0 6 -5 10 -11 10 -5 0
-7 -4 -4 -10z"/>
<path d="M1280 5107 l1 -42 19 23 c20 24 18 47 -6 56 -11 4 -14 -4 -14 -37z"/>
<path d="M843 3633 c-31 -21 -29 -33 7 -33 25 0 30 4 30 25 0 29 -6 30 -37 8z"/>
<path d="M1123 3485 c0 -22 2 -30 4 -17 2 12 2 30 0 40 -3 9 -5 -1 -4 -23z"/>
<path d="M966 3444 c-3 -9 -6 -29 -6 -44 0 -16 -4 -32 -10 -35 -20 -12 -10
-26 10 -15 11 6 20 20 20 30 0 11 5 20 10 20 6 0 10 9 10 20 0 11 5 20 11 20
5 0 7 5 4 10 -10 16 -42 12 -49 -6z"/>
<path d="M1630 1090 c0 -5 7 -10 15 -10 8 0 15 5 15 10 0 6 -7 10 -15 10 -8 0
-15 -4 -15 -10z"/>
<path d="M2633 564 c-14 -15 -3 -27 14 -16 7 4 9 13 5 19 -5 8 -11 7 -19 -3z"/>
<path d="M4294 7057 c3 -12 5 -40 5 -61 1 -52 7 -43 14 21 4 39 3 53 -8 57
-11 4 -14 -1 -11 -17z"/>
<path d="M4301 6894 c0 -11 3 -14 6 -6 3 7 2 16 -1 19 -3 4 -6 -2 -5 -13z"/>
<path d="M4290 6855 c-14 -16 -5 -35 16 -35 15 0 20 35 5 44 -5 3 -14 -1 -21
-9z"/>
<path d="M7717 6540 c3 -11 7 -20 9 -20 2 0 4 9 4 20 0 11 -4 20 -9 20 -5 0
-7 -9 -4 -20z"/>
<path d="M7751 6514 c0 -11 3 -14 6 -6 3 7 2 16 -1 19 -3 4 -6 -2 -5 -13z"/>
<path d="M8943 3988 c2 -7 12 -13 22 -13 10 0 20 6 23 13 2 7 -6 12 -23 12
-17 0 -25 -5 -22 -12z"/>
<path d="M8700 3950 c0 -5 5 -10 10 -10 6 0 10 5 10 10 0 6 -4 10 -10 10 -5 0
-10 -4 -10 -10z"/>
<path d="M8720 3720 c0 -5 5 -10 11 -10 5 0 7 5 4 10 -3 6 -8 10 -11 10 -2 0
-4 -4 -4 -10z"/>
<path d="M8670 3550 c0 -5 5 -10 10 -10 6 0 10 5 10 10 0 6 -4 10 -10 10 -5 0
-10 -4 -10 -10z"/>
<path d="M8650 2950 c8 -5 22 -9 30 -9 10 0 8 3 -5 9 -27 12 -43 12 -25 0z"/>
<path d="M6678 6103 c7 -3 16 -2 19 1 4 3 -2 6 -13 5 -11 0 -14 -3 -6 -6z"/>
<path d="M6147 6084 c-11 -11 3 -24 18 -18 8 4 12 10 9 15 -6 11 -18 12 -27 3z"/>
<path d="M6610 5986 c0 -2 7 -6 15 -10 8 -3 15 -1 15 4 0 6 -7 10 -15 10 -8 0
-15 -2 -15 -4z"/>
<path d="M7029 5759 c-16 -16 -15 -17 10 -22 15 -3 39 -17 54 -31 35 -32 78
-36 70 -6 -5 19 -43 49 -43 34 0 -4 -8 0 -17 8 -36 31 -57 36 -74 17z"/>
<path d="M7035 5647 c11 -9 18 -17 15 -17 -15 -3 -88 -9 -190 -14 -108 -6
-120 -9 -195 -46 -64 -32 -87 -39 -115 -34 -40 6 -91 -10 -88 -28 2 -8 -12
-11 -46 -9 -41 2 -48 0 -43 -13 4 -10 -2 -20 -15 -27 l-21 -11 24 -19 c13 -11
47 -31 76 -45 37 -18 54 -33 62 -54 5 -17 15 -30 21 -30 6 0 16 -13 21 -30 6
-16 16 -28 22 -27 6 1 13 -7 15 -18 20 -97 172 -156 402 -155 79 1 83 2 60 15
-14 8 -37 14 -52 15 -33 0 -38 20 -5 20 22 1 22 1 -3 15 -14 8 -36 15 -50 15
-20 1 -17 4 15 14 l40 13 -44 8 -44 8 34 18 c19 10 42 21 52 25 9 3 17 9 17
13 0 4 15 14 33 23 25 12 43 14 68 7 l34 -8 -37 2 c-20 2 -34 -1 -32 -5 3 -4
11 -8 18 -8 7 0 22 -13 34 -29 12 -17 33 -30 50 -33 31 -4 31 -3 15 42 -4 8
-5 22 -4 31 1 9 -5 19 -14 23 -9 3 -14 10 -10 16 3 5 -22 36 -56 69 -52 51
-70 62 -115 71 -30 6 -54 15 -54 20 0 5 -8 10 -17 13 -15 3 -15 5 -3 9 105 36
247 48 282 24 18 -13 19 -16 5 -16 -9 0 -17 -4 -17 -10 0 -14 57 -13 66 2 4 6
-13 29 -42 55 -27 24 -64 57 -83 74 -20 17 -50 33 -70 36 -34 5 -35 5 -16 -10z
m97 -71 c15 -22 7 -25 -59 -24 -59 1 -64 2 -47 15 10 8 18 18 17 21 -3 12 81
0 89 -12z m-132 -196 c18 -12 2 -12 -25 0 -13 6 -15 9 -5 9 8 0 22 -4 30 -9z
m-170 -40 c0 -5 -4 -10 -9 -10 -6 0 -13 5 -16 10 -3 6 1 10 9 10 9 0 16 -4 16
-10z m137 -14 c27 -23 27 -25 10 -44 -18 -19 -95 -48 -104 -38 -3 3 0 12 7 21
15 18 6 45 -16 45 -23 0 -11 23 17 31 42 12 57 10 86 -15z m-344 -76 c8 0 8
-3 0 -11 -13 -13 -43 -5 -43 12 0 6 7 8 16 5 9 -3 21 -6 27 -6z"/>
<path d="M7232 5441 c2 -7 7 -12 11 -12 12 1 9 15 -3 20 -7 2 -11 -2 -8 -8z"/>
<path d="M7078 5223 c7 -3 16 -2 19 1 4 3 -2 6 -13 5 -11 0 -14 -3 -6 -6z"/>
<path d="M7380 4839 c0 -11 5 -17 10 -14 6 3 10 13 10 21 0 8 -4 14 -10 14 -5
0 -10 -9 -10 -21z"/>
<path d="M6534 4654 c-40 -42 -43 -59 -9 -50 13 3 52 9 85 13 64 6 65 8 50 47
-8 22 -16 26 -51 26 -35 0 -47 -6 -75 -36z"/>
<path d="M6870 4365 c0 -3 12 -11 28 -17 26 -11 26 -12 5 -15 -22 -4 -33 -23
-13 -23 6 0 10 -9 10 -19 0 -11 9 -23 20 -26 11 -3 20 -11 20 -16 0 -17 20 -9
36 16 15 22 14 26 -3 57 -10 18 -19 34 -20 36 -3 6 -83 13 -83 7z"/>
<path d="M7302 4138 c2 -51 6 -63 19 -60 16 2 34 -25 42 -63 3 -11 5 2 6 29 1
35 -7 64 -26 103 -15 29 -31 53 -36 53 -4 0 -7 -28 -5 -62z"/>
<path d="M7023 4073 c-7 -3 -13 -8 -13 -13 0 -11 49 -19 56 -9 3 5 -1 9 -10 9
-8 0 -16 4 -18 9 -1 4 -9 6 -15 4z"/>
<path d="M7316 4013 c5 -33 22 -66 25 -52 7 28 4 76 -5 81 -22 15 -27 8 -20
-29z"/>
<path d="M6746 3976 c3 -9 11 -16 16 -16 13 0 5 23 -10 28 -7 2 -10 -2 -6 -12z"/>
<path d="M7326 3941 c-4 -7 -5 -15 -2 -18 9 -9 19 4 14 18 -4 11 -6 11 -12 0z"/>
<path d="M6585 3910 c3 -5 10 -10 16 -10 5 0 9 5 9 10 0 6 -7 10 -16 10 -8 0
-12 -4 -9 -10z"/>
<path d="M6940 3005 c0 -7 6 -16 13 -18 10 -4 10 -6 0 -6 -17 -1 -16 -18 1
-24 8 -3 22 3 31 13 15 17 14 19 -14 33 -25 12 -31 13 -31 2z"/>
<path d="M9585 3610 c-3 -5 -1 -10 4 -10 6 0 11 5 11 10 0 6 -2 10 -4 10 -3 0
-8 -4 -11 -10z"/>
<path d="M9600 3559 c0 -5 5 -7 10 -4 6 3 10 8 10 11 0 2 -4 4 -10 4 -5 0 -10
-5 -10 -11z"/>
<path d="M9103 2545 c0 -8 4 -15 9 -15 4 0 8 7 8 15 0 8 -4 15 -8 15 -5 0 -9
-7 -9 -15z"/>
<path d="M9181 2304 c-6 -14 -9 -30 -6 -35 12 -19 21 -8 21 26 0 19 -1 35 -1
35 -1 0 -7 -12 -14 -26z"/>
<path d="M6360 909 c-11 -7 -4 -8 25 -3 50 8 58 14 19 14 -16 0 -36 -5 -44
-11z"/>
<path d="M6568 913 c7 -3 16 -2 19 1 4 3 -2 6 -13 5 -11 0 -14 -3 -6 -6z"/>
<path d="M6618 903 c6 -2 18 -2 25 0 6 3 1 5 -13 5 -14 0 -19 -2 -12 -5z"/>
<path d="M6173 893 c-18 -2 -33 -8 -33 -13 0 -11 71 -1 85 11 9 9 8 9 -52 2z"/>
<path d="M6766 891 c5 -5 29 -12 54 -15 29 -4 40 -4 30 2 -20 12 -96 24 -84
13z"/>
<path d="M5975 840 c-13 -5 -14 -9 -5 -9 8 0 24 4 35 9 13 5 14 9 5 9 -8 0
-24 -4 -35 -9z"/>
<path d="M6970 841 c8 -5 31 -12 50 -15 l35 -7 -34 16 c-37 17 -79 22 -51 6z"/>
<path d="M6486 734 c-21 -31 -36 -58 -33 -60 2 -2 23 -6 45 -9 47 -4 67 11 27
21 -32 8 -32 47 0 52 15 2 25 -7 38 -33 14 -30 37 -48 37 -29 0 13 -62 114
-69 114 -5 0 -25 -25 -45 -56z"/>
<path d="M5790 770 c-8 -5 -10 -10 -5 -10 6 0 17 5 25 10 8 5 11 10 5 10 -5 0
-17 -5 -25 -10z"/>
<path d="M7160 775 c0 -7 72 -36 77 -31 3 3 -9 12 -26 20 -30 16 -51 20 -51
11z"/>
<path d="M7360 681 c0 -9 30 -24 36 -18 2 1 -6 8 -16 15 -11 7 -20 8 -20 3z"/>
<path d="M6380 619 c0 -5 -9 -9 -20 -9 -14 0 -20 -7 -20 -21 0 -18 -4 -20 -22
-14 -13 4 -31 7 -40 6 -43 -2 -58 -6 -58 -13 0 -4 -9 -17 -21 -29 -15 -15 -18
-24 -9 -34 8 -9 8 -15 0 -20 -15 -9 -12 -25 5 -25 14 0 17 -5 19 -39 1 -8 6
-16 13 -18 8 -3 10 13 6 54 -6 73 8 95 63 97 33 1 39 -2 37 -18 -1 -11 6 -26
15 -32 14 -10 15 -15 5 -25 -7 -7 -13 -21 -13 -30 0 -9 -7 -19 -15 -22 -13 -5
-61 -87 -51 -87 175 0 456 -9 469 -14 28 -13 21 21 -16 73 -37 51 -48 111 -21
111 13 0 14 3 5 14 -9 10 -9 16 -1 21 8 5 8 11 -1 21 -6 8 -8 14 -3 14 5 0 -6
9 -24 20 -33 21 -87 27 -96 11 -3 -5 12 -11 33 -15 30 -5 41 -12 51 -35 6 -16
10 -42 8 -57 -3 -30 -18 -34 -88 -23 -20 3 -26 -1 -28 -18 -2 -13 -9 -23 -16
-23 -9 0 -13 22 -12 83 1 89 -17 125 -22 42 -4 -83 -9 -97 -31 -83 -14 9 -29
9 -54 1 -43 -13 -57 -2 -57 44 0 42 30 73 70 73 17 0 30 5 30 10 0 6 -3 10 -7
11 -50 7 -83 6 -83 -2z m35 -242 c13 -10 15 -16 6 -21 -12 -8 -41 10 -41 25 0
13 13 11 35 -4z"/>
<path d="M6745 560 c-18 -8 -17 -9 6 -9 45 -1 74 -33 72 -79 -2 -35 1 -39 17
-35 15 4 18 11 14 28 -3 13 -1 26 4 29 14 9 -40 64 -69 70 -13 3 -33 1 -44 -4z"/>
<path d="M6806 405 c-3 -8 -1 -15 4 -15 6 0 10 7 10 15 0 8 -2 15 -4 15 -2 0
-6 -7 -10 -15z"/>
<path d="M6281 314 c21 -45 34 -64 48 -70 22 -9 344 -18 375 -10 14 3 26 12
26 20 0 7 7 19 15 26 20 17 19 29 -2 28 -10 0 -119 4 -242 8 -134 4 -222 4
-220 -2z"/>
<path d="M1840 510 c0 -5 18 -10 39 -10 22 0 42 -5 44 -12 3 -7 6 -3 6 10 1
20 -4 22 -44 22 -25 0 -45 -4 -45 -10z"/>
<path d="M1940 410 c0 -5 5 -10 10 -10 6 0 10 5 10 10 0 6 -4 10 -10 10 -5 0
-10 -4 -10 -10z"/>
</g>
</svg>
